<svg width="18" height="17" viewBox="0 0 18 17" fill="none" xmlns="http://www.w3.org/2000/svg">
<path fill-rule="evenodd" clip-rule="evenodd" d="M3.91468 11.4315C2.91037 10.4272 2.35753 9.09167 2.35753 7.67126C2.35753 6.25084 2.91037 4.9153 3.91468 3.91099C4.95199 2.87486 6.31347 2.3562 7.67376 2.3562C9.03641 2.3562 10.3979 2.87486 11.4352 3.91099C13.5075 5.98444 13.5075 9.35807 11.4352 11.4315C10.4297 12.4358 9.09535 12.9887 7.67494 12.9887C6.25453 12.9887 4.92017 12.4358 3.91468 11.4315ZM16.6583 14.9878L13.8635 12.1942C16.0583 9.19422 15.8096 4.95184 13.102 2.24422C10.1067 -0.748663 5.23843 -0.747484 2.2479 2.24422C0.798024 3.6941 0 5.62138 0 7.67125C0 9.72113 0.798024 11.6484 2.2479 13.0983C3.74376 14.5953 5.70876 15.3427 7.67376 15.3427C9.26745 15.3427 10.8552 14.8429 12.1979 13.8609L14.9904 16.6546C15.2214 16.8845 15.5232 17 15.8249 17C16.1255 17 16.4273 16.8845 16.6583 16.6546C17.118 16.1937 17.118 15.4476 16.6583 14.9878Z" fill="#CACDD4"/>
<mask id="mask0" mask-type="alpha" maskUnits="userSpaceOnUse" x="0" y="0" width="18" height="17">
<path fill-rule="evenodd" clip-rule="evenodd" d="M3.91468 11.4315C2.91037 10.4272 2.35753 9.09167 2.35753 7.67126C2.35753 6.25084 2.91037 4.9153 3.91468 3.91099C4.95199 2.87486 6.31347 2.3562 7.67376 2.3562C9.03641 2.3562 10.3979 2.87486 11.4352 3.91099C13.5075 5.98444 13.5075 9.35807 11.4352 11.4315C10.4297 12.4358 9.09535 12.9887 7.67494 12.9887C6.25453 12.9887 4.92017 12.4358 3.91468 11.4315ZM16.6583 14.9878L13.8635 12.1942C16.0583 9.19422 15.8096 4.95184 13.102 2.24422C10.1067 -0.748663 5.23843 -0.747484 2.2479 2.24422C0.798024 3.6941 0 5.62138 0 7.67125C0 9.72113 0.798024 11.6484 2.2479 13.0983C3.74376 14.5953 5.70876 15.3427 7.67376 15.3427C9.26745 15.3427 10.8552 14.8429 12.1979 13.8609L14.9904 16.6546C15.2214 16.8845 15.5232 17 15.8249 17C16.1255 17 16.4273 16.8845 16.6583 16.6546C17.118 16.1937 17.118 15.4476 16.6583 14.9878Z" fill="white"/>
</mask>
<g mask="url(#mask0)">
<rect x="-42.8027" y="-41.7213" width="96" height="96" fill="#CACDD4"/>
</g>
</svg>
